<?xml version="1.0" ?><svg fill="none" height="64" viewBox="0 0 64 64" width="64" xmlns="http://www.w3.org/2000/svg"><path clip-rule="evenodd" d="M49.4522 28.8726V44.148L31.9956 52.875L14.5391 44.148V28.8726L31.9956 20.1431L49.4522 28.8726Z" fill="url(#paint0_linear)" fill-rule="evenodd"/><path clip-rule="evenodd" d="M31.9946 20.1431V52.875L14.5381 44.148V28.8726L31.9946 20.1431Z" fill="url(#paint1_linear)" fill-rule="evenodd"/><path clip-rule="evenodd" d="M56 21.2344L49.4517 28.8709L31.9951 20.1438L38.541 12.5049L56 21.2344Z" fill="url(#paint2_linear)" fill-rule="evenodd"/><path clip-rule="evenodd" d="M7.99999 21.2295L14.5483 28.866L32.0049 20.1389L25.459 12.5L7.99999 21.2295Z" fill="url(#paint3_linear)" fill-rule="evenodd"/><path d="M32 39.4995C38.6274 39.4995 44 34.1269 44 27.4995C44 20.8721 38.6274 15.4995 32 15.4995C25.3726 15.4995 20 20.8721 20 27.4995C20 34.1269 25.3726 39.4995 32 39.4995Z" fill="white"/><path clip-rule="evenodd" d="M34.2301 20.0337L25.9052 20.6463C25.2339 20.7044 25 21.142 25 21.6666V30.7653C25 31.1741 25.1458 31.5235 25.4965 31.9905L27.4534 34.5277C27.7749 34.9362 28.067 35.0236 28.6808 34.9944L38.3484 34.411C39.1661 34.353 39.4 33.9736 39.4 33.332V23.0957C39.4 22.7641 39.2687 22.6683 38.8816 22.3859C38.8603 22.3704 38.8382 22.3543 38.8154 22.3376L36.158 20.4712C35.5154 20.0048 35.2524 19.9461 34.2301 20.0337ZM28.9 22.9278C28.1107 22.9811 27.9314 22.9932 27.4831 22.6293L26.3433 21.7253C26.227 21.6084 26.2853 21.4626 26.5772 21.4337L34.5806 20.8504C35.2523 20.7919 35.6027 21.0256 35.8657 21.2296L37.2384 22.2213C37.2969 22.2503 37.4427 22.4251 37.2674 22.4251L29.0019 22.921L28.9 22.9278ZM27.9794 33.2444V24.5541C27.9794 24.1751 28.0962 24 28.4465 23.9706L37.9391 23.4167C38.2611 23.3875 38.4069 23.5918 38.4069 23.9706V32.6025C38.4069 32.9819 38.3483 33.3031 37.8224 33.332L28.7386 33.8572C28.2129 33.8861 27.9794 33.7114 27.9794 33.2444ZM36.9468 25.0203C37.005 25.283 36.9468 25.5455 36.6834 25.5751L36.2457 25.6622V32.0779C35.8657 32.282 35.5153 32.3986 35.2233 32.3986C34.7558 32.3986 34.6387 32.2527 34.2885 31.8155L31.4257 27.3245V31.6697L32.3316 31.874C32.3316 31.874 32.3316 32.3986 31.6007 32.3986L29.5858 32.5154C29.5272 32.3986 29.5858 32.1073 29.7901 32.0489L30.316 31.9033V26.1581L29.5859 26.0997C29.5274 25.8369 29.6732 25.4582 30.0824 25.4287L32.2439 25.2832L35.2233 29.8326V25.808L34.4637 25.7209C34.4054 25.3997 34.6387 25.1665 34.9308 25.1376L36.9468 25.0203Z" fill="black" fill-rule="evenodd"/><path clip-rule="evenodd" d="M49.4517 44.1465L31.9951 52.876V37.6006L49.4517 28.8711V44.1465Z" fill="url(#paint4_linear)" fill-rule="evenodd"/><path clip-rule="evenodd" d="M14.5361 44.1465L31.9951 52.876V37.6006L14.5361 28.8711V44.1465Z" fill="url(#paint5_linear)" fill-rule="evenodd"/><path clip-rule="evenodd" d="M49.4517 28.8711L56 34.3264L38.541 43.0559L31.9951 37.6006L49.4517 28.8711Z" fill="url(#paint6_linear)" fill-rule="evenodd"/><path clip-rule="evenodd" d="M14.5483 28.8662L7.99999 34.3215L25.459 43.051L32.0049 37.5957L14.5483 28.8662Z" fill="url(#paint7_linear)" fill-rule="evenodd"/><defs><linearGradient gradientUnits="userSpaceOnUse" id="paint0_linear" x1="49.0846" x2="51.7922" y1="52.4947" y2="24.0582"><stop stop-color="#C6803A"/><stop offset="1" stop-color="#A4601D"/></linearGradient><linearGradient gradientUnits="userSpaceOnUse" id="paint1_linear" x1="34.5473" x2="20.0843" y1="42.2998" y2="27.0333"><stop stop-color="#9B5F1F"/><stop offset="1" stop-color="#824C1B"/></linearGradient><linearGradient gradientUnits="userSpaceOnUse" id="paint2_linear" x1="48.5888" x2="54.7331" y1="27.3284" y2="11.5505"><stop stop-color="#EEC089"/><stop offset="1" stop-color="#C18B54"/></linearGradient><linearGradient gradientUnits="userSpaceOnUse" id="paint3_linear" x1="24.9262" x2="18.1602" y1="31.1385" y2="17.7606"><stop stop-color="#EEC089"/><stop offset="1" stop-color="#C18B54"/></linearGradient><linearGradient gradientUnits="userSpaceOnUse" id="paint4_linear" x1="47.1751" x2="45.1224" y1="47.2115" y2="32.6185"><stop stop-color="#9B5F1F"/><stop offset="1" stop-color="#824C1B"/></linearGradient><linearGradient gradientUnits="userSpaceOnUse" id="paint5_linear" x1="16.6804" x2="19.0294" y1="47.0171" y2="32.5478"><stop stop-color="#C6803A"/><stop offset="1" stop-color="#A4601D"/></linearGradient><linearGradient gradientUnits="userSpaceOnUse" id="paint6_linear" x1="28.0967" x2="33.0365" y1="36.0173" y2="47.3444"><stop stop-color="#EEC089"/><stop offset="1" stop-color="#C18B54"/></linearGradient><linearGradient gradientUnits="userSpaceOnUse" id="paint7_linear" x1="34.6307" x2="28.5863" y1="36.4153" y2="53.7257"><stop stop-color="#EEC089"/><stop offset="1" stop-color="#C18B54"/></linearGradient></defs></svg>